<svg xmlns="http://www.w3.org/2000/svg" width="188" height="93" viewBox="0 0 188 93">
  <metadata><?xpacket begin="﻿" id="W5M0MpCehiHzreSzNTczkc9d"?>
<x:xmpmeta xmlns:x="adobe:ns:meta/" x:xmptk="Adobe XMP Core 5.6-c138 79.159824, 2016/09/14-01:09:01        ">
   <rdf:RDF xmlns:rdf="http://www.w3.org/1999/02/22-rdf-syntax-ns#">
      <rdf:Description rdf:about=""/>
   </rdf:RDF>
</x:xmpmeta>
                                                                                                    
                                                                                                    
                                                                                                    
                                                                                                    
                                                                                                    
                                                                                                    
                                                                                                    
                                                                                                    
                                                                                                    
                                                                                                    
                                                                                                    
                                                                                                    
                                                                                                    
                                                                                                    
                                                                                                    
                                                                                                    
                                                                                                    
                                                                                                    
                                                                                                    
                                                                                                    
                           
<?xpacket end="w"?></metadata>
<defs>
    <style>
      .cls-1 {
        fill-rule: evenodd;
      }
    </style>
  </defs>
  <path id="tit-bg2" class="cls-1" d="M962.749,2109.22l8.388-8.39L984,2113.7l-8.388,8.38Zm0-23.92,8.388-8.38L984,2089.78l-8.388,8.39Zm0-23.91,8.388-8.39L984,2065.86l-8.388,8.39Zm-23.916,71.75,8.388-8.39,12.862,12.86L951.7,2146Zm0-23.92,8.388-8.39,12.862,12.87-8.388,8.38Zm0-23.92,8.388-8.38,12.862,12.86-8.388,8.39Zm0-23.91,8.388-8.39,12.862,12.86-8.388,8.39Zm-23.916,71.75,8.388-8.39,12.862,12.86-8.388,8.39Zm0-23.92,8.388-8.39,12.862,12.87-8.388,8.38Zm0-23.92,8.388-8.38,12.862,12.86-8.388,8.39Zm0-23.91,8.388-8.39,12.862,12.86-8.388,8.39ZM891,2133.14l8.388-8.39,12.862,12.86-8.388,8.39Zm0-23.92,8.388-8.39,12.862,12.87-8.388,8.38Zm0-23.92,8.388-8.38,12.862,12.86-8.388,8.39Zm0-23.91,8.388-8.39,12.862,12.86-8.388,8.39Zm93,76.22-8.388,8.39-12.862-12.86,8.388-8.39Zm73.751-28.39,8.39-8.39L1079,2113.7l-8.39,8.38Zm0-23.92,8.39-8.38,12.86,12.86-8.39,8.39Zm0-23.91,8.39-8.39,12.86,12.86-8.39,8.39Zm-23.92,71.75,8.39-8.39,12.86,12.86-8.38,8.39Zm0-23.92,8.39-8.39,12.86,12.87-8.38,8.38Zm0-23.92,8.39-8.38,12.86,12.86-8.38,8.39Zm0-23.91,8.39-8.39,12.86,12.86-8.38,8.39Zm-23.91,71.75,8.38-8.39,12.87,12.86-8.39,8.39Zm0-23.92,8.38-8.39,12.87,12.87-8.39,8.38Zm0-23.92,8.38-8.38,12.87,12.86-8.39,8.39Zm0-23.91,8.38-8.39,12.87,12.86-8.39,8.39ZM986,2133.14l8.388-8.39,12.861,12.86-8.387,8.39Zm0-23.92,8.388-8.39,12.861,12.87-8.387,8.38Zm0-23.92,8.388-8.38,12.861,12.86-8.387,8.39Zm0-23.91,8.388-8.39,12.861,12.86-8.387,8.39Zm93,76.22-8.39,8.39-12.86-12.86,8.39-8.39Z" transform="translate(-891 -2053)"/>
</svg>
